<?xml version="1.0" encoding="utf-8"?>
<!-- Generator: Adobe Illustrator 26.0.1, SVG Export Plug-In . SVG Version: 6.00 Build 0)  -->
<svg version="1.1" id="Слой_1" xmlns="http://www.w3.org/2000/svg" xmlns:xlink="http://www.w3.org/1999/xlink" x="0px" y="0px"
	 viewBox="0 0 16 16" style="enable-background:new 0 0 16 16;" xml:space="preserve">
<style type="text/css">
	.st0{fill:#00CCAE;}
	.st1{fill:#FFFFFF;}
	.st2{fill:none;stroke:#222222;stroke-width:1.3;stroke-linecap:round;stroke-linejoin:round;}
</style>
<path class="st0" d="M4,0h8c2.21,0,4,1.79,4,4v8c0,2.21-1.79,4-4,4H4c-2.21,0-4-1.79-4-4V4C0,1.79,1.79,0,4,0z"/>
<path class="st1" d="M5,3.4c0.15-0.54,0.64-0.9,1.2-0.9h5.05c0.69,0,1.25,0.56,1.25,1.25v8.5c0,0.69-0.56,1.25-1.25,1.25h-7.5
	c-0.83,0-1.43-0.8-1.2-1.6L5,3.4z"/>
<path class="st2" d="M7.38,5.16h2.46c0.14,0,0.25,0.11,0.25,0.25v4.75"/>
<path class="st2" d="M5.64,11.41L5.3,10.33c-0.03-0.08,0.03-0.16,0.12-0.16h5.41c0.08,0,0.14,0.08,0.12,0.16l-0.34,1.09"/>
<path class="st2" d="M6.12,8.35H8.5"/>
<path class="st2" d="M6.5,6.85h2"/>
</svg>
