<?xml version="1.0" encoding="utf-8"?>
<!-- Generator: Adobe Illustrator 26.0.1, SVG Export Plug-In . SVG Version: 6.00 Build 0)  -->
<svg version="1.1" id="Слой_1" xmlns="http://www.w3.org/2000/svg" xmlns:xlink="http://www.w3.org/1999/xlink" x="0px" y="0px"
	 viewBox="0 0 16 16" style="enable-background:new 0 0 16 16;" xml:space="preserve">
<style type="text/css">
	.st0{fill:#7FC911;}
	.st1{fill:#FFFFFF;}
	.st2{fill:none;stroke:#222222;stroke-width:1.3;stroke-linecap:round;stroke-linejoin:round;}
</style>
<path class="st0" d="M4,0h8c2.21,0,4,1.79,4,4v8c0,2.21-1.79,4-4,4H4c-2.21,0-4-1.79-4-4V4C0,1.79,1.79,0,4,0z"/>
<path class="st1" d="M11.42,13c0.87,0,1.58-0.68,1.58-1.52V3.41c0-0.33-0.4-0.53-0.67-0.33l-1.06,0.76
	c-0.15,0.11-0.36,0.11-0.51-0.01L9.77,3.09c-0.15-0.12-0.37-0.12-0.52,0L8.26,3.84c-0.15,0.12-0.37,0.12-0.52,0L6.75,3.09
	c-0.15-0.12-0.37-0.12-0.52,0L5.24,3.84C5.09,3.95,4.88,3.96,4.73,3.85L3.67,3.08C3.4,2.88,3,3.07,3,3.41v8.07
	C3,12.32,3.71,13,4.58,13H11.42z"/>
<path class="st2" d="M5.25,7h5.5"/>
<path class="st2" d="M5.25,8.5h5.5"/>
<path class="st2" d="M8,10h2.75"/>
</svg>
