<?xml version="1.0" encoding="utf-8"?>
<!-- Generator: Adobe Illustrator 26.0.1, SVG Export Plug-In . SVG Version: 6.00 Build 0)  -->
<svg version="1.1" id="Слой_1" xmlns="http://www.w3.org/2000/svg" xmlns:xlink="http://www.w3.org/1999/xlink" x="0px" y="0px"
	 viewBox="0 0 16 16" style="enable-background:new 0 0 16 16;" xml:space="preserve">
<style type="text/css">
	.st0{fill:#21A038;}
	.st1{fill:url(#SVGID_1_);}
	.st2{fill:url(#SVGID_00000168105199895690803670000009013249290668062118_);}
	.st3{fill:url(#SVGID_00000141449920272085489920000012538871563391375769_);}
	.st4{fill:url(#SVGID_00000127017351140765745900000003655771408520756617_);}
	.st5{fill:url(#SVGID_00000046328073065994844160000009824611538366050710_);}
	.st6{fill:url(#SVGID_00000080172982927781379950000003753827410065827999_);}
</style>
<g>
	<path class="st0" d="M14.33,3.11c0.38,0.49,0.7,1.03,0.96,1.59L8,10.07L4.96,8.16v-2.3L8,7.77L14.33,3.11z"/>
	
		<linearGradient id="SVGID_1_" gradientUnits="userSpaceOnUse" x1="2.7251" y1="4.5793" x2="0.6815" y2="10.4086" gradientTransform="matrix(1 0 0 -1 0 18)">
		<stop  offset="0.14" style="stop-color:#F1E813"/>
		<stop  offset="0.3" style="stop-color:#E6E418"/>
		<stop  offset="0.58" style="stop-color:#C9DA26"/>
		<stop  offset="0.89" style="stop-color:#A2CC39"/>
	</linearGradient>
	<path class="st1" d="M1.85,8c0-0.1,0-0.21,0.01-0.31L0.01,7.6C0,7.73,0,7.87,0,8c0,1.05,0.21,2.09,0.61,3.06
		c0.4,0.97,0.99,1.85,1.74,2.59l1.31-1.31c-0.57-0.57-1.03-1.25-1.34-1.99C2.01,9.61,1.85,8.81,1.85,8z"/>
	
		<linearGradient id="SVGID_00000036947546636904097380000017485547181609715108_" gradientUnits="userSpaceOnUse" x1="2.8667" y1="15.3349" x2="8.0762" y2="17.2938" gradientTransform="matrix(1 0 0 -1 0 18)">
		<stop  offset="0.06" style="stop-color:#0FA7DF"/>
		<stop  offset="0.54" style="stop-color:#0098F8"/>
		<stop  offset="0.92" style="stop-color:#0290EA"/>
	</linearGradient>
	<path style="fill:url(#SVGID_00000036947546636904097380000017485547181609715108_);" d="M8,1.85c0.1,0,0.21,0,0.31,0.01L8.4,0.01
		C8.27,0,8.13,0,8,0C6.95,0,5.91,0.21,4.94,0.61C3.97,1.01,3.09,1.6,2.34,2.34l1.31,1.31C4.22,3.08,4.9,2.63,5.65,2.32
		C6.39,2.01,7.19,1.85,8,1.85z"/>
	
		<linearGradient id="SVGID_00000096019911569636691530000012494812985572083618_" gradientUnits="userSpaceOnUse" x1="7.4789" y1="3.1265" x2="13.3615" y2="4.4378" gradientTransform="matrix(1 0 0 -1 0 18)">
		<stop  offset="0.12" style="stop-color:#A2CC39"/>
		<stop  offset="0.28" style="stop-color:#86C239"/>
		<stop  offset="0.87" style="stop-color:#219F38"/>
	</linearGradient>
	<path style="fill:url(#SVGID_00000096019911569636691530000012494812985572083618_);" d="M8,14.15c-0.1,0-0.21,0-0.31-0.01
		L7.6,15.99C7.73,16,7.87,16,8,16c1.05,0,2.09-0.21,3.06-0.61s1.85-0.99,2.59-1.74l-1.31-1.31c-0.57,0.57-1.25,1.03-1.99,1.34
		C9.61,13.99,8.81,14.15,8,14.15z"/>
	
		<linearGradient id="SVGID_00000143582011587238947320000010860143740376388014_" gradientUnits="userSpaceOnUse" x1="7.6121" y1="17.3678" x2="12.6452" y2="15.8352" gradientTransform="matrix(1 0 0 -1 0 18)">
		<stop  offset="0.06" style="stop-color:#0290EA"/>
		<stop  offset="0.79" style="stop-color:#0C89CA"/>
	</linearGradient>
	<path style="fill:url(#SVGID_00000143582011587238947320000010860143740376388014_);" d="M11.47,2.92l1.56-1.15
		C11.6,0.62,9.83,0,8,0v1.85C9.24,1.85,10.45,2.22,11.47,2.92z"/>
	<path class="st0" d="M16,8c0-0.48-0.04-0.96-0.13-1.43l-1.72,1.27c0,0.05,0,0.11,0,0.16c0,0.86-0.18,1.71-0.53,2.5
		c-0.35,0.79-0.86,1.49-1.5,2.06l1.24,1.37c0.83-0.75,1.49-1.66,1.95-2.69C15.77,10.22,16,9.12,16,8z"/>
	
		<linearGradient id="SVGID_00000035499668469198877580000004502081117596615606_" gradientUnits="userSpaceOnUse" x1="2.5271" y1="4.8504" x2="8.0075" y2="2.8294" gradientTransform="matrix(1 0 0 -1 0 18)">
		<stop  offset="0.13" style="stop-color:#F1E813"/>
		<stop  offset="0.3" style="stop-color:#EAE616"/>
		<stop  offset="0.53" style="stop-color:#D8DF1F"/>
		<stop  offset="0.8" style="stop-color:#BAD52D"/>
		<stop  offset="0.98" style="stop-color:#A2CC39"/>
	</linearGradient>
	<path style="fill:url(#SVGID_00000035499668469198877580000004502081117596615606_);" d="M8,14.15c-0.86,0-1.71-0.18-2.5-0.53
		c-0.79-0.35-1.49-0.86-2.06-1.5l-1.37,1.24c0.75,0.83,1.66,1.49,2.69,1.95C5.78,15.77,6.88,16,8,16V14.15z"/>
	
		<linearGradient id="SVGID_00000016775087191237726960000016822442727505802376_" gradientUnits="userSpaceOnUse" x1="0.6698" y1="9.7802" x2="2.8929" y2="15.4865" gradientTransform="matrix(1 0 0 -1 0 18)">
		<stop  offset="0.07" style="stop-color:#A2CC39"/>
		<stop  offset="0.26" style="stop-color:#81C45E"/>
		<stop  offset="0.92" style="stop-color:#0FA7DF"/>
	</linearGradient>
	<path style="fill:url(#SVGID_00000016775087191237726960000016822442727505802376_);" d="M3.87,3.44L2.63,2.07
		C1.8,2.82,1.14,3.73,0.69,4.75C0.23,5.78,0,6.88,0,8h1.85c0-0.86,0.18-1.71,0.53-2.5C2.73,4.72,3.24,4.02,3.87,3.44z"/>
</g>
</svg>
