<?xml version="1.0" encoding="UTF-8" standalone="no"?>
<svg
   version="1.1"
   id="mdi-lan-check"
   width="24"
   height="24"
   viewBox="0 0 24 24"
   sodipodi:docname="lan_check_icon_color.svg"
   inkscape:version="1.1.1 (eb90963e84, 2021-10-02)"
   xmlns:inkscape="http://www.inkscape.org/namespaces/inkscape"
   xmlns:sodipodi="http://sodipodi.sourceforge.net/DTD/sodipodi-0.dtd"
   xmlns="http://www.w3.org/2000/svg"
   xmlns:svg="http://www.w3.org/2000/svg">
  <defs
     id="defs7" />
  <sodipodi:namedview
     id="namedview5"
     pagecolor="#ffffff"
     bordercolor="#666666"
     borderopacity="1.0"
     inkscape:pageshadow="2"
     inkscape:pageopacity="0.0"
     inkscape:pagecheckerboard="0"
     showgrid="false"
     inkscape:zoom="36.375"
     inkscape:cx="12"
     inkscape:cy="12"
     inkscape:window-width="2560"
     inkscape:window-height="1308"
     inkscape:window-x="0"
     inkscape:window-y="27"
     inkscape:window-maximized="1"
     inkscape:current-layer="mdi-lan-check" />
  <path
     d="M4 1C2.89 1 2 1.89 2 3V7C2 8.11 2.89 9 4 9H1V11H13V9H10C11.11 9 12 8.11 12 7V3C12 1.89 11.11 1 10 1H4M4 3H10V7H4V3M14 13C12.89 13 12 13.89 12 15V19C12 20.11 12.89 21 14 21H11V23H23V21H20C21.11 21 22 20.11 22 19V15C22 13.89 21.11 13 20 13H14M14 15H20V19H14V15M5.5 20.5L10.5 15.5L9 14L5.5 17.5L3.5 15.5L2 17L5.5 20.5Z"
     id="path2"
     style="fill:#008000" />
</svg>
