<?xml version="1.0" encoding="UTF-8" standalone="no"?>
<!-- Generator: Adobe Illustrator 16.0.0, SVG Export Plug-In . SVG Version: 6.00 Build 0)  -->

<svg
   version="1.1"
   id="GROUP"
   x="0px"
   y="0px"
   width="1800px"
   height="1800px"
   viewBox="0 0 1800 1800"
   enable-background="new 0 0 1800 1800"
   xml:space="preserve"
   sodipodi:docname="team_group.svg"
   inkscape:version="1.1.1 (eb90963e84, 2021-10-02)"
   xmlns:inkscape="http://www.inkscape.org/namespaces/inkscape"
   xmlns:sodipodi="http://sodipodi.sourceforge.net/DTD/sodipodi-0.dtd"
   xmlns="http://www.w3.org/2000/svg"
   xmlns:svg="http://www.w3.org/2000/svg"><defs
   id="defs31">
	
		
	
		
	
		
	
	
	
</defs><sodipodi:namedview
   id="namedview29"
   pagecolor="#ffffff"
   bordercolor="#666666"
   borderopacity="1.0"
   inkscape:pageshadow="2"
   inkscape:pageopacity="0.0"
   inkscape:pagecheckerboard="0"
   showgrid="false"
   inkscape:zoom="0.485"
   inkscape:cx="900"
   inkscape:cy="900"
   inkscape:window-width="2560"
   inkscape:window-height="1308"
   inkscape:window-x="0"
   inkscape:window-y="27"
   inkscape:window-maximized="1"
   inkscape:current-layer="GROUP" />
<g
   id="g838"
   transform="translate(3.3851784,-150.0494)"><line
     fill="none"
     stroke="#333333"
     stroke-width="10"
     stroke-linecap="round"
     stroke-linejoin="round"
     stroke-miterlimit="10"
     x1="906.41022"
     y1="1284.0349"
     x2="906.41022"
     y2="1046.8918"
     id="line2" /><line
     fill="none"
     stroke="#333333"
     stroke-width="10"
     stroke-linecap="round"
     stroke-linejoin="round"
     stroke-miterlimit="10"
     x1="1124.6423"
     y1="1413.6989"
     x2="917.48724"
     y2="1298.2749"
     id="line4" /><line
     fill="none"
     stroke="#333333"
     stroke-width="10"
     stroke-linecap="round"
     stroke-linejoin="round"
     stroke-miterlimit="10"
     x1="688.32123"
     y1="1413.6989"
     x2="895.4762"
     y2="1298.2749"
     id="line6" /><path
     fill="#333333"
     d="m 973.20875,661.72133 v -7.453 c 57.00795,-26.082 97.41195,-80.138 106.20695,-142.043 24.032,-8.717 40.98,-31.933 40.98,-58.221 0,-22.63 -12.225,-42.889 -31.146,-53.695 1.969,-6.164 3.585,-12.379 4.831,-18.586 10.066,-49.925 -1.4,-100.947 -32.293,-143.668 -30.385,-42.033 -76.06295,-71.018 -128.61495,-81.617 -14.133,-2.85 -28.541,-4.294 -42.824,-4.294 -45.073,0 -89.049,14.537 -123.827,40.929 -35.818,27.174 -60.31,65.782 -68.967,108.718 -6.563,32.551 -3.881,66.134 7.72,97.641 -19.665,10.569 -32.688,31.348 -32.688,54.58 0,26.629 17.197,49.926 41.586,58.449 9.035,63.375 50.755,117.946 109.634,143.38 v 5.885 c -122.292,27.702 -206.617,119.175 -206.617,226.071 v 28.549 h 106.436 v -0.051 h 11.82 v 0.051 h 444.38895 v -28.549 c 0,-106.9 -84.325,-198.369 -206.62595,-226.076 z m -82.859,-452.474 c 10.487,0 21.104,1.066 31.545,3.164 38.423,7.75 71.671,28.738 93.62295,59.098 20.469,28.305 28.713,61.591 23.443,94.254 -28.099,-13.11 -65.02595,-26.972 -103.87495,-32.293 -73.02,-9.985 -74.189,-13.376 -78.543,-25.997 l -13.939,-40.344 -32.07,28.373 c -3.413,3.005 -29.25,25.717 -59.067,50.42 -0.821,-10.957 -0.134,-21.943 2.067,-32.853 12.125,-60.159 69.666,-103.822 136.816,-103.822 z m -120.978,195.816 c 20.026,-16.2 39.808,-32.93 54.121,-45.206 19.836,17.894 50.771,22.927 103.848,30.187 36.003,4.926 71.31,19.343 96.84595,32.006 v 64.342 c 0,70.252 -57.14995,127.411 -127.40195,127.411 -70.257,0 -127.412,-57.159 -127.412,-127.411 v -81.329 z m 111.534,265.134 c 11.808,1.04 23.542,0.916 35.208,-0.313 v 17.627 l -17.653,9.783 -17.554,-9.753 v -17.344 z m -203.703,189.016 c 13.105,-63.942 69.255,-117.096 146.604,-138.622 v 0.551 l 74.606,41.448 74.796,-41.427 v -0.572 c 77.36095,21.526 133.51495,74.692 146.61095,138.647 l -384.61095,-0.047 v 0.021 h -58.006 z"
     id="path8" /><path
     fill="#333333"
     d="m 376.487,1542.108 v -7.458 c 57.009,-26.082 97.414,-80.139 106.208,-142.039 24.032,-8.717 40.98,-31.932 40.98,-58.221 0,-22.635 -12.225,-42.885 -31.146,-53.699 1.969,-6.164 3.584,-12.379 4.835,-18.586 10.062,-49.921 -1.406,-100.942 -32.293,-143.668 -30.39,-42.029 -76.063,-71.013 -128.615,-81.608 -14.128,-2.854 -28.541,-4.298 -42.829,-4.298 -45.072,0 -89.049,14.537 -123.827,40.929 -35.818,27.174 -60.314,65.782 -68.971,108.718 -6.559,32.551 -3.877,66.139 7.724,97.641 -19.665,10.57 -32.689,31.349 -32.689,54.576 0,26.633 17.198,49.93 41.583,58.449 9.035,63.375 50.755,117.947 109.638,143.385 v 5.88 C 104.793,1569.816 20.468,1661.285 20.468,1768.176 v 28.558 h 106.436 v -0.12 h 11.816 v 0.12 h 444.393 v -28.558 c 0,-106.892 -84.325,-198.361 -206.626,-226.068 z m -82.859,-452.477 c 10.488,0 21.105,1.065 31.545,3.172 38.423,7.745 71.675,28.729 93.622,59.094 20.478,28.309 28.718,61.604 23.443,94.254 -28.103,-13.11 -65.034,-26.977 -103.874,-32.294 -73.02,-9.985 -74.189,-13.38 -78.548,-25.996 l -13.935,-40.345 -32.092,28.391 c -5.541,4.879 -30.295,26.59 -59.042,50.402 -0.825,-10.956 -0.138,-21.938 2.063,-32.852 12.128,-60.16 69.666,-103.826 136.818,-103.826 z m -120.977,195.814 c 20.013,-16.188 39.799,-32.926 54.121,-45.205 19.833,17.894 50.772,22.932 103.848,30.191 36.012,4.922 71.31,19.338 96.846,32.006 v 64.342 c 0,70.252 -57.155,127.406 -127.403,127.406 -70.256,0 -127.412,-57.154 -127.412,-127.406 z m 111.534,265.139 c 11.816,1.041 23.529,0.916 35.208,-0.317 v 17.632 l -17.657,9.778 -17.55,-9.753 v -17.34 z M 116.373,1739.6 v 0.025 H 80.474 c 13.093,-63.959 69.255,-117.121 146.612,-138.646 v 0.55 l 74.606,41.444 74.795,-41.427 v -0.567 c 77.362,21.525 133.52,74.688 146.612,138.646 l -384.611,-0.051 v 0.025 h -22.115 z"
     id="path10" /><path
     fill="#333333"
     d="m 1572.91,1542.108 v -7.458 c 57.009,-26.082 97.414,-80.139 106.207,-142.039 24.033,-8.717 40.98,-31.932 40.98,-58.221 0,-22.631 -12.224,-42.889 -31.141,-53.699 1.965,-6.164 3.58,-12.375 4.826,-18.586 10.067,-49.921 -1.4,-100.942 -32.293,-143.668 -30.381,-42.029 -76.059,-71.013 -128.61,-81.608 -14.129,-2.854 -28.537,-4.298 -42.833,-4.298 -45.068,0 -89.045,14.537 -123.822,40.929 -35.818,27.174 -60.311,65.782 -68.967,108.718 -6.564,32.551 -3.882,66.13 7.719,97.641 -19.664,10.57 -32.688,31.349 -32.688,54.576 0,26.633 17.198,49.93 41.587,58.449 9.035,63.379 50.754,117.951 109.633,143.385 v 5.88 c -122.296,27.707 -206.621,119.176 -206.621,226.067 v 28.558 h 106.436 v -0.052 h 11.825 v 0.052 h 444.384 v -28.558 c -10e-4,-106.892 -84.325,-198.361 -206.622,-226.068 z m -82.863,-452.477 c 10.488,0 21.104,1.065 31.55,3.172 38.423,7.745 71.671,28.729 93.622,59.094 20.478,28.309 28.722,61.611 23.447,94.254 -28.103,-13.11 -65.033,-26.977 -103.883,-32.294 -73.016,-9.985 -74.185,-13.38 -78.539,-26.001 l -13.939,-40.34 -32.151,28.442 c -5.562,4.9 -30.381,26.658 -58.986,50.351 -0.821,-10.956 -0.134,-21.943 2.067,-32.852 12.125,-60.16 69.659,-103.826 136.812,-103.826 z m -120.973,195.814 c 20.073,-16.238 39.828,-32.951 54.12,-45.205 19.833,17.894 50.769,22.932 103.849,30.191 36.002,4.922 71.309,19.338 96.846,32.006 v 64.342 c 0,70.252 -57.15,127.406 -127.403,127.406 -70.257,0 -127.411,-57.154 -127.411,-127.406 v -81.334 z m 111.533,265.139 c 11.803,1.041 23.533,0.912 35.203,-0.317 v 17.632 l -17.652,9.778 -17.551,-9.753 z M 1276.9,1739.6 c 13.109,-63.946 69.255,-117.1 146.607,-138.621 v 0.55 l 74.607,41.444 74.795,-41.427 v -0.567 c 77.37,21.521 133.52,74.688 146.612,138.646 l -384.616,-0.051 v 0.025 H 1276.9 Z"
     id="path12" /></g>
<g
   id="g16">
</g>
<g
   id="g18">
</g>
<g
   id="g20">
</g>
<g
   id="g22">
</g>
<g
   id="g24">
</g>
<g
   id="g26">
</g>
</svg>
