<?xml version="1.0" ?><svg viewBox="0 0 24 24" xmlns="http://www.w3.org/2000/svg"><defs><style>.cls-1{fill:#ffeabb;}.cls-2{fill:#f94060;}.cls-3{fill:#f7bf75;}.cls-4{fill:#f1734d;}</style></defs><g id="Certificate"><rect class="cls-1" height="13.7" width="20" x="1.86" y="3.12"/><path class="cls-2" d="M4.8,12.69H9.39a1.13,1.13,0,1,1,0,2.25H4.8a1.13,1.13,0,1,1,0-2.25"/><rect class="cls-3" height="13.7" width="1.95" x="19.92" y="3.12"/><polygon class="cls-2" points="13.44 15.31 11.17 19.23 13.08 19.25 14.04 20.88 16.65 16.37 13.44 15.31"/><polygon class="cls-2" points="15.49 17.11 17.67 20.88 18.63 19.25 20.53 19.23 18.27 15.31 15.49 17.11"/><path class="cls-3" d="M18.37,14.62a2.52,2.52,0,1,1-2.51-2.52,2.52,2.52,0,0,1,2.51,2.52"/><path class="cls-4" d="M17.22,14.62a1.37,1.37,0,1,1-1.36-1.37,1.36,1.36,0,0,1,1.36,1.37"/><path d="M21.86,2.62h-20a.5.5,0,0,0-.5.5v13.7a.51.51,0,0,0,.5.5H11.7l-1,1.66a.5.5,0,0,0,0,.5.5.5,0,0,0,.43.25h1.62l.82,1.4a.5.5,0,0,0,.43.24h0a.47.47,0,0,0,.43-.25l1.39-2.39,1.38,2.39a.47.47,0,0,0,.43.25h0a.5.5,0,0,0,.43-.24l.82-1.4h1.62a.5.5,0,0,0,.43-.25.5.5,0,0,0,0-.5l-1-1.66h1.85a.5.5,0,0,0,.5-.5V3.12A.5.5,0,0,0,21.86,2.62ZM14,19.89l-.53-.9a.53.53,0,0,0-.43-.25H12l1.37-2.37a3,3,0,0,0,1.75,1.18l.12.19Zm1.82-3.26a2,2,0,1,1,2-2A2,2,0,0,1,15.86,16.63Zm2.77,2.11a.53.53,0,0,0-.43.25l-.53.9-1.33-2.31a3,3,0,0,0,2-1.21l1.37,2.37Zm2.73-2.42H19.43l-.62-1.08a3.18,3.18,0,0,0,.06-.62,3,3,0,1,0-6,0,3.18,3.18,0,0,0,.06.62l-.62,1.08H2.36V3.62h19Z"/><path d="M16.33,14.12h-.95a.5.5,0,0,0,0,1h.95a.5.5,0,0,0,0-1Z"/><path d="M4.8,15.44H9.39a1.63,1.63,0,1,0,0-3.25H4.8a1.63,1.63,0,1,0,0,3.25Zm0-2.25H9.39a.63.63,0,1,1,0,1.25H4.8a.63.63,0,1,1,0-1.25Z"/><path d="M10.48,6h2.76a.5.5,0,0,0,.5-.5.5.5,0,0,0-.5-.5H10.48a.5.5,0,0,0-.5.5A.51.51,0,0,0,10.48,6Z"/><path d="M8,7.88h7.64a.5.5,0,0,0,.5-.5.5.5,0,0,0-.5-.5H8a.5.5,0,0,0-.5.5A.5.5,0,0,0,8,7.88Z"/><path d="M8,9.81h7.64a.5.5,0,0,0,.5-.5.5.5,0,0,0-.5-.5H8a.5.5,0,0,0-.5.5A.5.5,0,0,0,8,9.81Z"/></g></svg>