<?xml version="1.0" encoding="utf-8"?>
<!-- Generator: Adobe Illustrator 26.0.1, SVG Export Plug-In . SVG Version: 6.00 Build 0)  -->
<svg version="1.1" id="Слой_1" xmlns="http://www.w3.org/2000/svg" xmlns:xlink="http://www.w3.org/1999/xlink" x="0px" y="0px"
	 viewBox="0 0 16 16" style="enable-background:new 0 0 16 16;" xml:space="preserve">
<style type="text/css">
	.st0{fill:#FFEABB;}
	.st1{fill:#F94060;}
	.st2{fill:#F7BF75;}
	.st3{fill:#F1734D;}
</style>
<g id="Certificate">
	<rect x="0.43" y="1.85" class="st0" width="15.25" height="10.62"/>
	<path class="st1" d="M2.67,9.27h3.5c0.47-0.05,0.89,0.31,0.94,0.79c0.04,0.48-0.3,0.91-0.78,0.95c-0.05,0.01-0.11,0.01-0.16,0h-3.5
		c-0.47,0.05-0.89-0.31-0.94-0.79c-0.04-0.48,0.3-0.91,0.78-0.95C2.57,9.27,2.62,9.27,2.67,9.27"/>
	<rect x="14.2" y="1.85" class="st2" width="1.49" height="10.62"/>
	<polygon class="st1" points="9.26,11.3 7.53,14.34 8.99,14.36 9.72,15.62 11.71,12.12 	"/>
	<polygon class="st1" points="10.82,12.7 12.49,15.62 13.22,14.36 14.67,14.34 12.94,11.3 	"/>
	<path class="st2" d="M13.02,10.77c0,1.08-0.86,1.95-1.92,1.95c-1.06,0-1.92-0.87-1.92-1.95c0-1.08,0.86-1.95,1.92-1.95
		c0,0,0.01,0,0.01,0C12.16,8.82,13.02,9.69,13.02,10.77"/>
	<path class="st3" d="M12.14,10.77c0,0.59-0.47,1.06-1.04,1.06s-1.04-0.48-1.04-1.06c0-0.59,0.47-1.06,1.04-1.06c0,0,0.01,0,0.01,0
		C11.68,9.71,12.14,10.18,12.14,10.77C12.14,10.76,12.14,10.76,12.14,10.77"/>
	<path d="M15.68,1.46H0.43c-0.21,0-0.38,0.17-0.38,0.39v10.62c0,0.21,0.17,0.38,0.38,0.39h7.5l-0.76,1.29
		c-0.07,0.12-0.07,0.27,0,0.39c0.07,0.12,0.19,0.19,0.33,0.19h1.23l0.63,1.09C9.43,15.93,9.55,16,9.69,16l0,0
		c0.14,0,0.26-0.07,0.33-0.19l1.06-1.85l1.05,1.85c0.06,0.12,0.19,0.2,0.33,0.19l0,0c0.13,0,0.26-0.07,0.33-0.19l0.63-1.09h1.23
		c0.14,0,0.26-0.07,0.33-0.19c0.07-0.12,0.07-0.27,0-0.39l-0.76-1.29h1.41c0.21,0,0.38-0.17,0.38-0.39V1.85
		C16,1.66,15.87,1.5,15.68,1.46z M9.69,14.85l-0.4-0.7c-0.07-0.12-0.19-0.19-0.33-0.19H8.16l1.04-1.84c0.32,0.46,0.8,0.78,1.33,0.91
		l0.09,0.15L9.69,14.85z M11.08,12.33c-0.84,0-1.52-0.69-1.52-1.55c0-0.86,0.68-1.55,1.52-1.55s1.52,0.69,1.52,1.55
		c0,0.84-0.66,1.53-1.49,1.55H11.08z M13.19,13.96c-0.13,0.01-0.26,0.08-0.33,0.19l-0.4,0.7l-1.01-1.79
		c0.61-0.09,1.16-0.43,1.52-0.94l1.04,1.84L13.19,13.96z M15.27,12.09h-1.44l-0.47-0.84c0.03-0.16,0.05-0.32,0.05-0.48
		c0-1.28-1.02-2.33-2.29-2.33s-2.29,1.04-2.29,2.33c0,0.16,0.02,0.32,0.05,0.48L8.4,12.09H0.81V2.24H15.3L15.27,12.09z"/>
	<path d="M11.46,10.38h-0.72c-0.21,0-0.38,0.17-0.38,0.39c0,0.21,0.17,0.39,0.38,0.39h0.72c0.21,0,0.38-0.17,0.38-0.39
		C11.85,10.55,11.67,10.38,11.46,10.38z"/>
	<path d="M2.67,11.4h3.5c0.68,0.05,1.28-0.47,1.34-1.16c0.05-0.7-0.46-1.3-1.14-1.36c-0.06-0.01-0.13-0.01-0.19,0h-3.5
		c-0.68-0.05-1.28,0.47-1.34,1.16c-0.05,0.7,0.46,1.3,1.14,1.36C2.55,11.41,2.61,11.41,2.67,11.4z M2.67,9.66h3.5
		c0.26-0.03,0.5,0.16,0.54,0.42c0.03,0.27-0.15,0.51-0.42,0.55c-0.04,0.01-0.08,0.01-0.12,0h-3.5c-0.26,0.03-0.5-0.16-0.54-0.42
		C2.1,9.94,2.29,9.69,2.55,9.66C2.59,9.65,2.63,9.65,2.67,9.66z"/>
	<path d="M7,4.08h2.1c0.21,0,0.38-0.17,0.38-0.39c0-0.21-0.17-0.39-0.38-0.39H7c-0.21,0-0.38,0.17-0.38,0.39
		C6.63,3.91,6.8,4.08,7,4.08z"/>
	<path d="M5.11,5.54h5.82c0.21,0,0.38-0.17,0.38-0.39c0-0.21-0.17-0.39-0.38-0.39H5.11c-0.21,0-0.38,0.17-0.38,0.39
		C4.73,5.37,4.9,5.54,5.11,5.54z"/>
	<path d="M5.11,7.04h5.82c0.21,0,0.38-0.17,0.38-0.39s-0.17-0.39-0.38-0.39H5.11c-0.21,0-0.38,0.17-0.38,0.39S4.9,7.04,5.11,7.04z"
		/>
</g>
</svg>
