<?xml version="1.0" encoding="utf-8"?>
<!-- Generator: Adobe Illustrator 26.0.1, SVG Export Plug-In . SVG Version: 6.00 Build 0)  -->
<svg version="1.1" id="Слой_1" xmlns="http://www.w3.org/2000/svg" xmlns:xlink="http://www.w3.org/1999/xlink" x="0px" y="0px"
	 viewBox="0 0 16 16" style="enable-background:new 0 0 16 16;" xml:space="preserve">
<style type="text/css">
	.st0{fill:#B3B8BD;}
	.st1{fill:#2E4C59;}
	.st2{opacity:0.35;}
	.st3{fill:#FDE9A4;}
</style>
<g>
	<g>
		<g>
			<g>
				<path class="st0" d="M10.07,15.55H7.81H5.55H3.29H1.04c-0.11,0-0.21-0.02-0.31-0.06c-0.09-0.04-0.18-0.1-0.25-0.17
					c-0.07-0.07-0.13-0.16-0.17-0.25c-0.04-0.09-0.06-0.2-0.06-0.31v-2.24v-2.24V8.05V5.81c0-0.11,0.02-0.21,0.06-0.31
					c0.04-0.09,0.1-0.18,0.17-0.25c0.07-0.07,0.16-0.13,0.25-0.17c0.09-0.04,0.2-0.06,0.31-0.06h2.26h2.26h2.26h2.26
					c0.11,0,0.21,0.02,0.31,0.06c0.09,0.04,0.18,0.1,0.25,0.17c0.07,0.07,0.13,0.16,0.17,0.25c0.04,0.09,0.06,0.2,0.06,0.31v2.24
					v2.24v2.24v2.24c0,0.11-0.02,0.21-0.06,0.31c-0.04,0.09-0.1,0.18-0.17,0.25c-0.07,0.07-0.16,0.13-0.25,0.17
					C10.28,15.53,10.18,15.55,10.07,15.55z"/>
				<path class="st1" d="M10.07,15.79H5.55H1.04c-0.14,0-0.27-0.03-0.4-0.08c-0.12-0.05-0.24-0.13-0.34-0.22
					c-0.1-0.1-0.17-0.21-0.23-0.33C0.03,15.04,0,14.9,0,14.77v-4.48V5.81c0-0.14,0.03-0.27,0.08-0.39C0.13,5.29,0.21,5.18,0.3,5.08
					c0.1-0.1,0.21-0.17,0.34-0.22s0.26-0.08,0.4-0.08h4.51h4.52c0.14,0,0.27,0.03,0.4,0.08s0.24,0.13,0.34,0.22
					c0.1,0.1,0.17,0.21,0.23,0.33s0.08,0.26,0.08,0.39v4.48v4.48c0,0.14-0.03,0.27-0.08,0.39c-0.05,0.12-0.13,0.24-0.22,0.33
					c-0.1,0.1-0.21,0.17-0.34,0.22C10.34,15.77,10.2,15.79,10.07,15.79z M1.04,5.27c-0.07,0-0.14,0.01-0.21,0.04
					C0.76,5.33,0.7,5.37,0.65,5.42C0.6,5.48,0.56,5.54,0.53,5.6C0.5,5.67,0.49,5.74,0.49,5.81v4.48v4.48c0,0.07,0.01,0.14,0.04,0.21
					s0.07,0.13,0.12,0.18s0.11,0.09,0.18,0.12c0.07,0.03,0.14,0.04,0.21,0.04h4.51h4.52c0.07,0,0.14-0.01,0.21-0.04
					c0.07-0.03,0.13-0.07,0.18-0.12c0.05-0.05,0.09-0.11,0.12-0.18c0.03-0.07,0.04-0.14,0.04-0.21v-4.48V5.81
					c0-0.07-0.01-0.14-0.04-0.21c-0.03-0.07-0.07-0.13-0.12-0.18c-0.05-0.05-0.11-0.09-0.18-0.12c-0.07-0.03-0.14-0.04-0.21-0.04
					H5.55L1.04,5.27L1.04,5.27z"/>
			</g>
			<g class="st2">
				<path class="st1" d="M1.05,14.82v-4.9v-4.9H1.04H1.04c-0.11,0-0.21,0.02-0.31,0.06c-0.09,0.04-0.18,0.1-0.25,0.17
					C0.4,5.32,0.35,5.41,0.31,5.5S0.24,5.7,0.24,5.81v4.48v4.48c0,0.11,0.02,0.21,0.06,0.31s0.1,0.18,0.17,0.25
					c0.07,0.07,0.16,0.13,0.25,0.17c0.09,0.04,0.2,0.06,0.31,0.06h4.51h4.51c0.11,0,0.21-0.02,0.31-0.06
					c0.09-0.04,0.18-0.1,0.25-0.17c0.07-0.07,0.12-0.14,0.16-0.23c0.04-0.09,0.06-0.18,0.07-0.28h-4.9L1.05,14.82L1.05,14.82z"/>
				<path class="st1" d="M10.07,15.69H5.55H1.04c-0.12,0-0.25-0.02-0.36-0.07c-0.11-0.05-0.21-0.11-0.3-0.2
					c-0.09-0.09-0.16-0.19-0.2-0.3S0.1,14.89,0.1,14.77v-4.48V5.81c0-0.12,0.02-0.24,0.07-0.35c0.05-0.11,0.11-0.21,0.2-0.3
					C0.47,5.07,0.57,5,0.68,4.96s0.23-0.07,0.36-0.07h0.01h0.01c0.04,0,0.07,0.02,0.1,0.04c0.03,0.03,0.04,0.06,0.04,0.1v4.83v4.83
					h4.83h4.83c0.02,0,0.04,0,0.06,0.01c0.02,0.01,0.03,0.02,0.05,0.03c0.01,0.01,0.02,0.03,0.03,0.05
					c0.01,0.02,0.01,0.04,0.01,0.06c-0.01,0.11-0.03,0.22-0.08,0.32c-0.05,0.1-0.11,0.19-0.19,0.27c-0.09,0.09-0.19,0.15-0.3,0.2
					S10.19,15.69,10.07,15.69z M0.91,5.17C0.85,5.19,0.79,5.21,0.73,5.24C0.67,5.27,0.62,5.31,0.57,5.35
					C0.51,5.41,0.46,5.48,0.43,5.56C0.4,5.64,0.38,5.72,0.38,5.81v4.48v4.48c0,0.09,0.02,0.17,0.05,0.25s0.08,0.15,0.14,0.21
					c0.06,0.06,0.13,0.11,0.21,0.14c0.08,0.03,0.16,0.05,0.25,0.05h4.51h4.51c0.09,0,0.17-0.02,0.25-0.05
					c0.08-0.03,0.15-0.08,0.21-0.14c0.04-0.04,0.07-0.08,0.1-0.13c0.03-0.05,0.05-0.09,0.06-0.14H5.87H1.05
					c-0.04,0-0.07-0.02-0.1-0.04c-0.03-0.03-0.04-0.06-0.04-0.1V9.99V5.17z"/>
			</g>
			<g class="st2">
				<path class="st1" d="M4.6,13.61c-0.04,0-0.09,0-0.13-0.01c-0.04-0.01-0.08-0.02-0.12-0.04c-0.04-0.02-0.08-0.04-0.11-0.07
					s-0.07-0.06-0.1-0.09c-0.03-0.03-0.05-0.07-0.07-0.11c-0.02-0.04-0.04-0.08-0.05-0.12C4,13.12,4,13.07,4,13.03s0-0.09,0.01-0.13
					l0.1-0.53l0.1-0.53l0.1-0.53l0.1-0.53c-0.16-0.1-0.31-0.22-0.43-0.36c-0.12-0.14-0.23-0.29-0.31-0.45S3.53,9.62,3.49,9.44
					C3.46,9.26,3.44,9.07,3.46,8.88c0.02-0.26,0.08-0.5,0.19-0.73c0.11-0.22,0.25-0.43,0.42-0.6c0.17-0.17,0.38-0.31,0.6-0.42
					s0.47-0.17,0.73-0.18c0.01,0,0.02,0,0.03,0c0.01,0,0.02,0,0.03,0c0.01,0,0.02,0,0.03,0c0.01,0,0.02,0,0.03,0
					c0.29,0,0.56,0.06,0.81,0.16c0.25,0.11,0.48,0.26,0.66,0.44c0.19,0.19,0.34,0.41,0.45,0.66c0.11,0.25,0.16,0.52,0.16,0.81
					c0,0.18-0.02,0.35-0.07,0.52c-0.04,0.17-0.11,0.33-0.19,0.48c-0.08,0.15-0.18,0.29-0.3,0.42c-0.12,0.13-0.25,0.24-0.4,0.33
					l0.1,0.53l0.1,0.53l0.1,0.53l0.1,0.53c0.01,0.04,0.01,0.09,0.01,0.13c0,0.04-0.01,0.09-0.02,0.13
					c-0.01,0.04-0.03,0.08-0.05,0.12c-0.02,0.04-0.04,0.08-0.07,0.11c-0.03,0.03-0.06,0.06-0.1,0.09c-0.03,0.03-0.07,0.05-0.11,0.07
					c-0.04,0.02-0.08,0.03-0.12,0.04c-0.04,0.01-0.09,0.01-0.13,0.01H6.02H5.54H5.07L4.6,13.61L4.6,13.61z"/>
				<path class="st1" d="M6.49,13.88H5.54H4.6c-0.07,0-0.13-0.01-0.19-0.02c-0.06-0.01-0.12-0.03-0.18-0.06
					c-0.06-0.03-0.11-0.06-0.16-0.1c-0.05-0.04-0.1-0.08-0.14-0.13c-0.04-0.05-0.08-0.1-0.11-0.16c-0.03-0.06-0.05-0.12-0.07-0.18
					c-0.02-0.06-0.03-0.13-0.03-0.19c0-0.06,0-0.13,0.02-0.19l0.19-0.97l0.19-0.97c-0.14-0.11-0.27-0.23-0.39-0.37
					c-0.11-0.14-0.21-0.29-0.29-0.45C3.33,9.9,3.26,9.7,3.22,9.49C3.18,9.29,3.16,9.07,3.18,8.86C3.2,8.58,3.27,8.3,3.39,8.05
					C3.51,7.8,3.67,7.56,3.87,7.36c0.2-0.2,0.44-0.36,0.7-0.48c0.26-0.11,0.53-0.18,0.82-0.2c0.01,0,0.03,0,0.04,0
					c0.01,0,0.03,0,0.04,0C5.8,6.67,6.12,6.73,6.42,6.84s0.57,0.29,0.8,0.53c0.22,0.22,0.4,0.48,0.52,0.76
					c0.12,0.28,0.18,0.59,0.18,0.9c0,0.2-0.03,0.39-0.07,0.58C7.79,9.8,7.72,9.99,7.62,10.16c-0.08,0.14-0.17,0.28-0.28,0.4
					S7.11,10.8,6.98,10.9l0.19,0.97l0.19,0.97c0.01,0.06,0.02,0.13,0.02,0.19c0,0.06-0.01,0.13-0.03,0.19
					c-0.02,0.06-0.04,0.12-0.07,0.18c-0.03,0.06-0.06,0.11-0.11,0.16c-0.04,0.05-0.09,0.09-0.14,0.13c-0.05,0.04-0.11,0.07-0.16,0.1
					c-0.06,0.03-0.12,0.05-0.18,0.06C6.62,13.87,6.56,13.88,6.49,13.88z M5.54,7.23c-0.01,0-0.02,0-0.03,0s-0.02,0-0.03,0
					c-0.01,0-0.02,0-0.03,0s-0.02,0-0.03,0C5.21,7.25,5,7.3,4.8,7.39C4.6,7.48,4.42,7.6,4.27,7.75C4.11,7.91,3.99,8.09,3.9,8.28
					C3.81,8.47,3.75,8.68,3.74,8.9c-0.01,0.16,0,0.33,0.03,0.48C3.8,9.54,3.85,9.69,3.92,9.84c0.07,0.14,0.16,0.28,0.27,0.39
					c0.11,0.12,0.23,0.22,0.37,0.31c0.05,0.03,0.08,0.07,0.11,0.12c0.02,0.05,0.03,0.11,0.02,0.16l-0.2,1.06l-0.2,1.06
					c0,0.02-0.01,0.05-0.01,0.07c0,0.02,0,0.05,0.01,0.07c0.01,0.02,0.01,0.04,0.02,0.07c0.01,0.02,0.02,0.04,0.04,0.06
					c0.02,0.02,0.03,0.03,0.05,0.05c0.02,0.01,0.04,0.03,0.06,0.04c0.02,0.01,0.04,0.02,0.07,0.02c0.02,0.01,0.05,0.01,0.07,0.01
					h0.95h0.95c0.02,0,0.05,0,0.07-0.01c0.02-0.01,0.05-0.01,0.07-0.02c0.02-0.01,0.04-0.02,0.06-0.04
					c0.02-0.01,0.04-0.03,0.05-0.05c0.02-0.02,0.03-0.04,0.04-0.06s0.02-0.04,0.02-0.07c0.01-0.02,0.01-0.05,0.01-0.07
					c0-0.02,0-0.05-0.01-0.07l-0.2-1.06l-0.2-1.06c-0.01-0.06,0-0.11,0.02-0.16c0.02-0.05,0.06-0.09,0.11-0.12
					c0.13-0.08,0.24-0.18,0.35-0.29c0.1-0.11,0.19-0.23,0.27-0.36C7.21,9.76,7.26,9.62,7.3,9.47c0.04-0.15,0.06-0.29,0.06-0.45
					c0-0.24-0.05-0.47-0.14-0.69C7.13,8.13,7,7.93,6.82,7.76c-0.17-0.17-0.37-0.3-0.59-0.39C6.02,7.28,5.78,7.23,5.54,7.23z"/>
			</g>
			<g>
				<path class="st1" d="M7.22,9.03c0-0.24-0.05-0.46-0.14-0.67c-0.09-0.2-0.22-0.39-0.38-0.54C6.53,7.67,6.34,7.55,6.12,7.47
					c-0.21-0.08-0.45-0.11-0.69-0.1c-0.21,0.01-0.4,0.06-0.58,0.15C4.67,7.6,4.51,7.72,4.37,7.85c-0.14,0.14-0.26,0.3-0.34,0.48
					S3.89,8.7,3.87,8.91c-0.01,0.17,0,0.33,0.04,0.48C3.94,9.55,4,9.69,4.08,9.83c0.07,0.13,0.17,0.26,0.28,0.37s0.23,0.2,0.37,0.28
					c0.02,0.01,0.05,0.03,0.06,0.05s0.03,0.04,0.04,0.07s0.02,0.05,0.02,0.08c0,0.03,0,0.05,0,0.08l-0.11,0.56l-0.11,0.56
					l-0.11,0.56l-0.11,0.56c-0.01,0.03,0,0.06,0,0.08c0.01,0.03,0.02,0.05,0.04,0.07c0.02,0.02,0.04,0.04,0.06,0.05
					c0.02,0.01,0.05,0.02,0.08,0.02h0.47h0.47h0.47h0.47c0.03,0,0.06-0.01,0.08-0.02c0.02-0.01,0.04-0.03,0.06-0.05
					c0.02-0.02,0.03-0.04,0.04-0.07c0.01-0.03,0.01-0.05,0-0.08l-0.11-0.56l-0.11-0.56l-0.11-0.56l-0.11-0.56
					c-0.01-0.03-0.01-0.05,0-0.08c0-0.03,0.01-0.05,0.02-0.08c0.01-0.02,0.03-0.05,0.04-0.07c0.02-0.02,0.04-0.04,0.06-0.05
					c0.13-0.07,0.24-0.16,0.35-0.26c0.1-0.1,0.19-0.21,0.27-0.34c0.07-0.12,0.13-0.26,0.17-0.4C7.19,9.33,7.22,9.18,7.22,9.03z"/>
			</g>
			<g>
				<g>
					<path class="st1" d="M1.38,5.82c0,0.04-0.01,0.08-0.02,0.12c-0.02,0.04-0.04,0.07-0.07,0.1S1.23,6.09,1.19,6.1
						C1.15,6.12,1.11,6.13,1.07,6.13c-0.04,0-0.08-0.01-0.12-0.02s-0.07-0.04-0.1-0.07C0.82,6.01,0.8,5.98,0.78,5.94
						C0.77,5.9,0.76,5.86,0.76,5.82c0-0.04,0.01-0.08,0.02-0.12C0.8,5.66,0.82,5.63,0.85,5.6c0.03-0.03,0.06-0.05,0.1-0.07
						c0.04-0.02,0.08-0.02,0.12-0.02c0.04,0,0.08,0.01,0.12,0.02c0.04,0.02,0.07,0.04,0.1,0.07c0.03,0.03,0.05,0.06,0.07,0.1
						C1.37,5.74,1.38,5.78,1.38,5.82z"/>
					<path class="st1" d="M10.33,5.82c0,0.04-0.01,0.08-0.02,0.12c-0.02,0.04-0.04,0.07-0.07,0.1c-0.03,0.03-0.06,0.05-0.1,0.07
						s-0.08,0.02-0.12,0.02c-0.04,0-0.08-0.01-0.12-0.02S9.83,6.06,9.8,6.04c-0.03-0.03-0.05-0.06-0.07-0.1
						C9.72,5.9,9.71,5.86,9.71,5.82c0-0.04,0.01-0.08,0.02-0.12C9.75,5.66,9.77,5.63,9.8,5.6c0.03-0.03,0.06-0.05,0.1-0.07
						c0.04-0.02,0.08-0.02,0.12-0.02c0.04,0,0.08,0.01,0.12,0.02c0.04,0.02,0.07,0.04,0.1,0.07c0.03,0.03,0.05,0.06,0.07,0.1
						C10.32,5.74,10.33,5.78,10.33,5.82z"/>
				</g>
				<g>
					<path class="st1" d="M1.38,14.74c0,0.04-0.01,0.08-0.02,0.12c-0.02,0.04-0.04,0.07-0.07,0.1c-0.03,0.03-0.06,0.05-0.1,0.07
						c-0.04,0.02-0.08,0.02-0.12,0.02c-0.04,0-0.08-0.01-0.12-0.02c-0.04-0.02-0.07-0.04-0.1-0.07c-0.03-0.03-0.05-0.06-0.07-0.1
						c-0.02-0.04-0.02-0.08-0.02-0.12c0-0.04,0.01-0.08,0.02-0.12c0.02-0.04,0.04-0.07,0.07-0.1c0.03-0.03,0.06-0.05,0.1-0.07
						c0.04-0.02,0.08-0.02,0.12-0.02c0.04,0,0.08,0.01,0.12,0.02c0.04,0.02,0.07,0.04,0.1,0.07c0.03,0.03,0.05,0.06,0.07,0.1
						C1.37,14.66,1.38,14.7,1.38,14.74z"/>
					<path class="st1" d="M10.33,14.74c0,0.04-0.01,0.08-0.02,0.12c-0.02,0.04-0.04,0.07-0.07,0.1c-0.03,0.03-0.06,0.05-0.1,0.07
						c-0.04,0.02-0.08,0.02-0.12,0.02c-0.04,0-0.08-0.01-0.12-0.02c-0.04-0.02-0.07-0.04-0.1-0.07c-0.03-0.03-0.05-0.06-0.07-0.1
						c-0.02-0.04-0.02-0.08-0.02-0.12c0-0.04,0.01-0.08,0.02-0.12c0.02-0.04,0.04-0.07,0.07-0.1c0.03-0.03,0.06-0.05,0.1-0.07
						c0.04-0.02,0.08-0.02,0.12-0.02c0.04,0,0.08,0.01,0.12,0.02c0.04,0.02,0.07,0.04,0.1,0.07c0.03,0.03,0.05,0.06,0.07,0.1
						C10.32,14.66,10.33,14.7,10.33,14.74z"/>
				</g>
			</g>
		</g>
		<path class="st1" d="M9.1,5.27H5.55H2.01c-0.07,0-0.13-0.03-0.17-0.07c-0.04-0.04-0.07-0.1-0.07-0.17V4.26V3.49
			c0-0.96,0.39-1.83,1.03-2.46S4.31,0,5.28,0h0.27h0.27c0.97,0,1.85,0.39,2.48,1.02c0.64,0.63,1.03,1.5,1.03,2.46v0.77v0.77
			c0,0.07-0.03,0.13-0.07,0.17C9.22,5.24,9.16,5.27,9.1,5.27z M2.25,4.78h3.3h3.3V4.13V3.49c0-0.83-0.34-1.58-0.89-2.12
			C7.42,0.82,6.66,0.48,5.82,0.48H5.55H5.28c-0.83,0-1.59,0.34-2.14,0.88S2.25,2.66,2.25,3.49v0.65L2.25,4.78L2.25,4.78z"/>
	</g>
	<g>
		<path class="st3" d="M15.22,13.93c0.15,0,0.28-0.06,0.38-0.15c0.1-0.1,0.16-0.23,0.16-0.37c0-0.15-0.06-0.28-0.16-0.37
			s-0.23-0.15-0.38-0.15h-0.37h-0.37v-2.48V7.91c0.37-0.11,0.69-0.34,0.92-0.64c0.23-0.3,0.36-0.67,0.36-1.08
			c0-0.49-0.2-0.94-0.53-1.27C14.9,4.6,14.45,4.4,13.95,4.4c-0.5,0-0.95,0.2-1.28,0.53c-0.33,0.32-0.53,0.77-0.53,1.27
			c0,0.4,0.13,0.78,0.36,1.08s0.55,0.53,0.92,0.64v3.66v3.66c0,0.15,0.06,0.28,0.16,0.37c0.1,0.1,0.23,0.15,0.38,0.15
			c0.15,0,0.28-0.06,0.38-0.15s0.16-0.23,0.16-0.37v-0.12v-0.12h0.37h0.37c0.15,0,0.28-0.06,0.38-0.15c0.1-0.1,0.16-0.23,0.16-0.37
			c0-0.15-0.06-0.28-0.16-0.37C15.5,14,15.37,13.94,15.22,13.93l-0.37,0.01h-0.37v0v0h0.37L15.22,13.93L15.22,13.93z M13.95,5.45
			c0.21,0,0.39,0.08,0.53,0.22c0.14,0.13,0.22,0.32,0.22,0.52c0,0.2-0.08,0.39-0.22,0.52c-0.14,0.13-0.32,0.22-0.53,0.22
			c-0.21,0-0.39-0.08-0.53-0.22C13.28,6.58,13.2,6.4,13.2,6.19c0-0.2,0.08-0.39,0.22-0.52C13.55,5.54,13.74,5.45,13.95,5.45z"/>
		<path class="st1" d="M13.95,16c-0.21,0-0.41-0.09-0.55-0.23s-0.23-0.33-0.23-0.54v-3.58V8.08c-0.39-0.16-0.7-0.42-0.93-0.74
			c-0.22-0.33-0.35-0.72-0.35-1.14c0-0.56,0.23-1.07,0.6-1.44s0.88-0.6,1.45-0.6c0.57,0,1.08,0.23,1.45,0.6
			C15.77,5.12,16,5.63,16,6.19c0,0.42-0.13,0.81-0.35,1.14c-0.22,0.33-0.54,0.59-0.93,0.74v2.28v2.28h0.25h0.25
			c0.21,0,0.41,0.09,0.55,0.23C15.91,13,16,13.19,16,13.4c0,0.1-0.02,0.2-0.06,0.29c-0.04,0.09-0.09,0.17-0.16,0.24
			c0.07,0.07,0.12,0.15,0.16,0.24c0.04,0.09,0.06,0.19,0.06,0.29c0,0.21-0.09,0.4-0.23,0.54c-0.14,0.14-0.33,0.23-0.55,0.23h-0.25
			h-0.25c0,0.21-0.09,0.4-0.23,0.54S14.16,16,13.95,16z M13.95,4.64c-0.43,0-0.82,0.17-1.11,0.46c-0.28,0.28-0.46,0.67-0.46,1.1
			c0,0.34,0.11,0.66,0.31,0.92c0.2,0.26,0.47,0.46,0.8,0.56c0.05,0.02,0.09,0.05,0.12,0.09c0.03,0.04,0.05,0.09,0.05,0.14v3.66v3.66
			c0,0.08,0.03,0.15,0.08,0.2c0.05,0.05,0.12,0.08,0.2,0.08c0.08,0,0.15-0.03,0.2-0.08c0.05-0.05,0.08-0.12,0.08-0.2v-0.12v-0.12
			c0-0.07,0.03-0.13,0.07-0.17c0.04-0.04,0.11-0.07,0.17-0.07h0.37h0.37c0.08,0,0.15-0.03,0.2-0.08c0.05-0.05,0.08-0.12,0.08-0.2
			c0-0.08-0.03-0.15-0.08-0.2c-0.05-0.05-0.12-0.08-0.2-0.08h-0.37h-0.37c-0.07,0-0.13-0.03-0.17-0.07s-0.07-0.1-0.07-0.17
			s0.03-0.13,0.07-0.17s0.11-0.07,0.17-0.07h0.37h0.37c0.08,0,0.15-0.03,0.2-0.08c0.05-0.05,0.08-0.12,0.08-0.2
			c0-0.08-0.03-0.15-0.08-0.2c-0.05-0.05-0.12-0.08-0.2-0.08h-0.37h-0.37c-0.07,0-0.13-0.03-0.17-0.07
			c-0.04-0.04-0.07-0.1-0.07-0.17v-2.48V7.91c0-0.05,0.02-0.1,0.05-0.14c0.03-0.04,0.07-0.07,0.12-0.09c0.33-0.1,0.6-0.3,0.8-0.56
			c0.2-0.26,0.31-0.58,0.31-0.92c0-0.43-0.18-0.82-0.46-1.1C14.77,4.82,14.38,4.64,13.95,4.64z M13.95,7.18
			c-0.27,0-0.52-0.11-0.7-0.29c-0.18-0.18-0.29-0.42-0.29-0.69s0.11-0.52,0.29-0.69c0.18-0.18,0.43-0.29,0.7-0.29
			c0.27,0,0.52,0.11,0.7,0.29c0.18,0.18,0.29,0.42,0.29,0.69s-0.11,0.52-0.29,0.69S14.22,7.18,13.95,7.18z M13.95,5.7
			c-0.14,0-0.26,0.06-0.35,0.15s-0.15,0.21-0.15,0.35s0.06,0.26,0.15,0.35c0.09,0.09,0.22,0.15,0.35,0.15s0.26-0.06,0.35-0.15
			s0.15-0.21,0.15-0.35s-0.06-0.26-0.15-0.35C14.21,5.75,14.09,5.7,13.95,5.7z"/>
	</g>
</g>
</svg>
