<?xml version="1.0" encoding="utf-8"?>
<!-- Generator: Adobe Illustrator 26.0.1, SVG Export Plug-In . SVG Version: 6.00 Build 0)  -->
<svg version="1.1" id="Слой_1" xmlns="http://www.w3.org/2000/svg" xmlns:xlink="http://www.w3.org/1999/xlink" x="0px" y="0px"
	 viewBox="0 0 16 16" style="enable-background:new 0 0 16 16;" xml:space="preserve">
<style type="text/css">
	.st0{fill:#F39C12;}
	.st1{fill:#F1C40F;}
</style>
<g transform="translate(0 -1028.4)">
	<g transform="matrix(.70711 .70711 -.70711 .70711 740.06 298.16)">
		<path class="st0" d="M4.8,1030.92c-2.83,0-5.12,2.21-5.11,5.11c0,2.82,2.3,5.12,5.13,5.13c2.83,0,5.12-2.3,5.11-5.11
			C9.93,1033.14,7.63,1030.92,4.8,1030.92z M4.81,1032.63c0.94,0,1.71,0.77,1.71,1.71c0,0.94-0.76,1.71-1.7,1.7
			c-0.94,0-1.71-0.77-1.71-1.71C3.1,1033.39,3.86,1032.62,4.81,1032.63z"/>
		<g>
			<path class="st1" d="M4.34,1030.49c-2.83,0-5.12,2.28-5.11,5.11c0,2.83,2.3,5.12,5.13,5.13c2.83,0,5.12-2.28,5.11-5.11
				C9.46,1032.79,7.17,1030.5,4.34,1030.49z M4.34,1032.2c0.94,0,1.71,0.77,1.71,1.71c0,0.94-0.76,1.71-1.7,1.7
				c-0.94,0-1.71-0.77-1.71-1.71C2.64,1032.96,3.4,1032.2,4.34,1032.2z"/>
			<polygon class="st1" points="1.8,1039.87 6.91,1039.88 6.92,1041.59 1.8,1041.58 			"/>
			<path class="st1" d="M2.65,1041.58l0.01,7.68l1.71,1.71l1.7-1.7l0-0.85l-1.71-0.86l1.71-0.85l0-0.85L5.21,1045l0.85-0.85l0-2.56
				L2.65,1041.58z"/>
		</g>
		<path class="st0" d="M5.21,1041.58l0,3.41l0.85-0.85l0-2.56L5.21,1041.58z M5.21,1045l0,2.13l0.85-0.43l0-0.85L5.21,1045z
			 M5.22,1047.98l0,2.13l0.85-0.85l0-0.85L5.22,1047.98z"/>
		<path class="st0" d="M3.5,1041.58l0.01,8.53l0.85,0.85l0-3.41l-0.01-5.97L3.5,1041.58z"/>
	</g>
</g>
</svg>
