<?xml version="1.0" encoding="utf-8"?>
<!-- Generator: Adobe Illustrator 26.0.1, SVG Export Plug-In . SVG Version: 6.00 Build 0)  -->
<svg version="1.1" id="Слой_1" xmlns="http://www.w3.org/2000/svg" xmlns:xlink="http://www.w3.org/1999/xlink" x="0px" y="0px"
	 viewBox="0 0 16 16" style="enable-background:new 0 0 16 16;" xml:space="preserve">
<style type="text/css">
	.st0{fill:#0071BC;}
</style>
<g>
	<path class="st0" d="M14,5.95c-0.23-0.15-0.44-0.26-0.65-0.34c-0.03-0.21-0.08-0.48-0.15-0.66c-0.52-1.66-2.12-2.83-3.89-2.83
		c-2.05,0-3.73,1.47-4.06,3.44C4.1,5.19,2.88,5.38,1.84,6.09C0.68,6.87,0,8.13,0,9.47c0,1.55,0.86,2.94,2.23,3.67
		c0.61,0.29,1.24,0.45,1.86,0.45l7.81-0.02c0.78,0,1.54-0.23,2.23-0.65C15.27,12.18,16,10.86,16,9.47C16.02,8.03,15.26,6.71,14,5.95
		z M13.7,12.25c-0.55,0.34-1.18,0.52-1.79,0.52L4.1,12.78c-0.48,0-1.02-0.13-1.5-0.36c-1.1-0.58-1.79-1.7-1.79-2.94
		c0-1.07,0.55-2.08,1.49-2.72c0.55-0.39,1.18-0.58,1.79-0.58c0.39,0,0.78,0.08,1.15,0.23L6,6.71l0.02-0.57
		c0.05-1.76,1.52-3.2,3.3-3.2c1.42,0,2.72,0.94,3.12,2.26v0.02c0.06,0.16,0.11,0.6,0.13,0.71v0.29l0.31,0.08
		c0.21,0.06,0.44,0.16,0.69,0.32c1.03,0.61,1.65,1.68,1.63,2.84C15.19,10.58,14.61,11.65,13.7,12.25z"/>
	<path class="st0" d="M8.37,8L8.37,8C8.21,7.84,7.95,7.84,7.81,8L7.27,8.53c0.21-1.12,1.2-1.97,2.38-1.97
		c0.58,0,1.13,0.21,1.57,0.57c0.15,0.13,0.37,0.13,0.53-0.02l0,0c0.18-0.16,0.18-0.45,0-0.61c-0.58-0.48-1.31-0.76-2.08-0.76
		c-1.62,0-2.96,1.2-3.18,2.75L6,8C5.83,7.84,5.58,7.84,5.43,8l0,0c-0.16,0.16-0.16,0.42,0,0.57l1.26,1.26
		c0.13,0.13,0.32,0.13,0.45,0L8.4,8.56C8.53,8.4,8.53,8.16,8.37,8z"/>
	<path class="st0" d="M12.7,7.95c-0.13-0.13-0.32-0.13-0.45,0l-1.26,1.26c-0.16,0.16-0.16,0.42,0,0.57c0.16,0.15,0.42,0.16,0.57,0
		l0.47-0.47c-0.06,0.36-0.16,0.69-0.31,0.92c-0.44,0.73-1.21,1.15-2.07,1.15c-0.68,0-1.31-0.27-1.76-0.78
		c-0.13-0.15-0.36-0.16-0.52-0.05l0,0c-0.19,0.15-0.23,0.42-0.06,0.6c0.6,0.65,1.45,1.02,2.36,1.02c1.13,0,2.17-0.58,2.75-1.54
		c0.23-0.37,0.39-0.89,0.45-1.42l0.53,0.53c0.16,0.16,0.42,0.16,0.57,0c0.15-0.16,0.16-0.42,0-0.57L12.7,7.95z"/>
</g>
</svg>
