<?xml version="1.0" encoding="UTF-8" standalone="no"?>
<svg
   id="blue_copy"
   style="enable-background:new 0 0 100 100;"
   version="1.1"
   viewBox="0 0 100 100"
   xml:space="preserve"
   sodipodi:docname="left_collapse_lite.svg"
   inkscape:version="1.1.1 (eb90963e84, 2021-10-02)"
   xmlns:inkscape="http://www.inkscape.org/namespaces/inkscape"
   xmlns:sodipodi="http://sodipodi.sourceforge.net/DTD/sodipodi-0.dtd"
   xmlns="http://www.w3.org/2000/svg"
   xmlns:svg="http://www.w3.org/2000/svg"><defs
     id="defs22" /><sodipodi:namedview
     id="namedview20"
     pagecolor="#ffffff"
     bordercolor="#666666"
     borderopacity="1.0"
     inkscape:pageshadow="2"
     inkscape:pageopacity="0.0"
     inkscape:pagecheckerboard="0"
     showgrid="false"
     inkscape:zoom="8.73"
     inkscape:cx="50"
     inkscape:cy="50"
     inkscape:window-width="2560"
     inkscape:window-height="1308"
     inkscape:window-x="0"
     inkscape:window-y="27"
     inkscape:window-maximized="1"
     inkscape:current-layer="blue_copy" /><g
     id="Layer_8_copy_4"
     transform="matrix(0.65472035,0,0,1.0507173,12.119053,-0.94125061)"
     style="fill:#ffffff"><path
       d="m 58.644,27.26 v 8.294 c 0,0.571 -0.305,1.1 -0.8,1.385 L 37.632,48.608 c -1.066,0.616 -1.066,2.155 0,2.771 l 20.212,11.669 c 0.495,0.286 0.8,0.814 0.8,1.385 v 8.294 c 0,1.231 -1.333,2.001 -2.399,1.385 L 16.869,51.379 c -1.066,-0.616 -1.066,-2.155 0,-2.771 L 56.244,25.875 c 1.067,-0.616 2.4,0.154 2.4,1.385 z"
       id="path2"
       style="fill:#ffffff" /><path
       d="m 57.844,63.048 -2.376,-1.372 c -0.013,0.043 -0.023,0.09 -0.032,0.136 l 0.409,0.236 c 0.495,0.286 0.8,0.814 0.8,1.385 v 8.294 c 0,1.008 -0.894,1.693 -1.803,1.575 l 1.404,0.81 c 1.066,0.616 2.399,-0.154 2.399,-1.385 v -8.294 c -0.001,-0.571 -0.306,-1.099 -0.801,-1.385 z"
       id="path4"
       style="fill:#ffffff" /><path
       d="M 37.632,48.608 57.844,36.939 c 0.495,-0.286 0.8,-0.814 0.8,-1.385 V 27.26 c 0,-1.115 -1.092,-1.84 -2.091,-1.512 0.054,0.16 0.091,0.328 0.091,0.512 v 8.294 c 0,0.571 -0.305,1.1 -0.8,1.385 L 35.632,47.608 c -0.078,0.052 -0.745,0.516 -0.8,1.385 -0.057,0.911 0.609,1.467 0.673,1.518 0.639,0.443 1.277,0.885 1.916,1.328 -0.032,-0.112 -0.07,-0.312 0.019,-0.51 0.011,-0.025 0.024,-0.049 0.037,-0.07 -0.895,-0.672 -0.852,-2.069 0.155,-2.651 z"
       id="path6"
       style="fill:#ffffff" /><path
       d="m 58.644,27.26 v 8.294 c 0,0.571 -0.305,1.1 -0.8,1.385 L 37.632,48.608 c -1.066,0.616 -1.066,2.155 0,2.771 l 20.212,11.669 c 0.495,0.286 0.8,0.814 0.8,1.385 v 8.294 c 0,1.231 -1.333,2.001 -2.399,1.385 L 16.869,51.379 c -1.066,-0.616 -1.066,-2.155 0,-2.771 L 56.244,25.875 c 1.067,-0.616 2.4,0.154 2.4,1.385 z"
       style="fill:#ffffff;stroke:#000000;stroke-miterlimit:10"
       id="path8" /><path
       d="m 86.058,27.26 v 8.294 c 0,0.571 -0.305,1.1 -0.8,1.385 L 65.047,48.608 c -1.066,0.616 -1.066,2.155 0,2.771 l 20.212,11.669 c 0.495,0.286 0.8,0.814 0.8,1.385 v 8.294 c 0,1.231 -1.333,2.001 -2.399,1.385 L 44.283,51.379 c -1.066,-0.616 -1.066,-2.155 0,-2.771 L 83.658,25.875 c 1.067,-0.616 2.4,0.154 2.4,1.385 z"
       id="path10"
       style="fill:#ffffff" /><path
       d="m 85.258,63.048 -2.376,-1.372 c -0.013,0.043 -0.023,0.09 -0.032,0.136 l 0.409,0.236 c 0.495,0.286 0.8,0.814 0.8,1.385 v 8.294 c 0,1.008 -0.894,1.693 -1.803,1.575 l 1.404,0.81 c 1.066,0.616 2.399,-0.154 2.399,-1.385 v -8.294 c -10e-4,-0.571 -0.306,-1.099 -0.801,-1.385 z"
       id="path12"
       style="fill:#ffffff" /><path
       d="M 65.047,48.608 85.259,36.939 c 0.495,-0.286 0.8,-0.814 0.8,-1.385 V 27.26 c 0,-1.115 -1.092,-1.84 -2.091,-1.512 0.054,0.16 0.091,0.328 0.091,0.512 v 8.294 c 0,0.571 -0.305,1.1 -0.8,1.385 L 63.047,47.608 c -0.078,0.052 -0.745,0.516 -0.8,1.385 -0.057,0.911 0.609,1.467 0.673,1.518 0.639,0.443 1.277,0.885 1.916,1.328 -0.032,-0.112 -0.07,-0.312 0.019,-0.51 0.011,-0.025 0.024,-0.049 0.037,-0.07 -0.896,-0.672 -0.853,-2.069 0.155,-2.651 z"
       id="path14"
       style="fill:#ffffff" /><path
       d="m 86.058,27.26 v 8.294 c 0,0.571 -0.305,1.1 -0.8,1.385 L 65.047,48.608 c -1.066,0.616 -1.066,2.155 0,2.771 l 20.212,11.669 c 0.495,0.286 0.8,0.814 0.8,1.385 v 8.294 c 0,1.231 -1.333,2.001 -2.399,1.385 L 44.283,51.379 c -1.066,-0.616 -1.066,-2.155 0,-2.771 L 83.658,25.875 c 1.067,-0.616 2.4,0.154 2.4,1.385 z"
       style="fill:#ffffff;stroke:#000000;stroke-miterlimit:10"
       id="path16" /></g></svg>
