<?xml version="1.0" ?><svg enable-background="new 0 0 64 64" version="1.1" viewBox="0 0 64 64" xml:space="preserve" xmlns="http://www.w3.org/2000/svg" xmlns:xlink="http://www.w3.org/1999/xlink"><g id="Layer_1"/><g id="icon"><g><g><path d="M11.989,55.099c-2.195,0-3.981-1.786-3.981-3.982c0-23.771,19.339-43.109,43.109-43.109c2.196,0,3.982,1.786,3.982,3.981     c0,2.196-1.786,3.982-3.982,3.982c-19.379,0-35.146,15.767-35.146,35.146C15.971,53.313,14.185,55.099,11.989,55.099z      M51.117,10.008c-22.668,0-41.109,18.441-41.109,41.109c0,1.093,0.889,1.982,1.981,1.982s1.982-0.89,1.982-1.982     c0-20.482,16.663-37.146,37.146-37.146c1.093,0,1.982-0.89,1.982-1.982S52.21,10.008,51.117,10.008z"/></g></g><g><g><path d="M22.566,55.099c-2.195,0-3.981-1.786-3.981-3.982c0-17.938,14.594-32.533,32.532-32.533c2.196,0,3.982,1.786,3.982,3.982     s-1.786,3.982-3.982,3.982c-13.547,0-24.568,11.021-24.568,24.568C26.549,53.313,24.762,55.099,22.566,55.099z M51.117,20.584     c-16.836,0-30.532,13.697-30.532,30.533c0,1.093,0.889,1.982,1.981,1.982s1.982-0.89,1.982-1.982     c0-14.649,11.919-26.568,26.568-26.568c1.093,0,1.982-0.89,1.982-1.982S52.21,20.584,51.117,20.584z"/></g></g><g><g><path d="M33.143,55.099c-2.196,0-3.982-1.786-3.982-3.982c0-12.106,9.85-21.956,21.956-21.956c2.196,0,3.982,1.786,3.982,3.982     c0,2.195-1.786,3.981-3.982,3.981c-7.715,0-13.991,6.277-13.991,13.992C37.126,53.313,35.34,55.099,33.143,55.099z      M51.117,31.161c-11.004,0-19.956,8.952-19.956,19.956c0,1.093,0.89,1.982,1.982,1.982s1.982-0.89,1.982-1.982     c0-8.818,7.174-15.992,15.991-15.992c1.093,0,1.982-0.889,1.982-1.981S52.21,31.161,51.117,31.161z"/></g></g><g><g><path d="M51.468,55.993h-7.184c-1.252,0-2.46-0.525-3.314-1.44c-0.849-0.908-1.288-2.14-1.204-3.376     c0.412-6.093,5.317-10.998,11.411-11.411c1.222-0.079,2.468,0.355,3.379,1.206c0.913,0.853,1.437,2.059,1.437,3.308v7.194     C55.993,53.966,53.964,55.993,51.468,55.993z M51.478,41.756c-0.056,0-0.11,0.002-0.166,0.006c-5.1,0.345-9.206,4.45-9.55,9.55     c-0.047,0.687,0.197,1.37,0.67,1.876c0.479,0.512,1.153,0.806,1.853,0.806h7.184c1.392,0,2.524-1.13,2.524-2.52v-7.194     c0-0.697-0.292-1.37-0.802-1.847C52.725,41.998,52.109,41.756,51.478,41.756z"/></g></g></g></svg>